<svg id="visual" viewBox="0 0 1920 1080" width="1920" height="1080" xmlns="http://www.w3.org/2000/svg" xmlns:xlink="http://www.w3.org/1999/xlink" version="1.1">
	<rect x="0" y="0" width="1920" height="1080" fill="#212227">
	</rect>
	<defs>
		<linearGradient id="grad1_0" x1="43.8%" y1="100%" x2="100%" y2="0%">
			<stop offset="14.444444444444446%" stop-color="#9b53ed" stop-opacity="1">
			</stop>
			<stop offset="85.55555555555554%" stop-color="#9b53ed" stop-opacity="1">
			</stop>
		</linearGradient>
	</defs>
	<defs>
		<linearGradient id="grad1_1" x1="43.8%" y1="100%" x2="100%" y2="0%">
			<stop offset="14.444444444444446%" stop-color="#9b53ed" stop-opacity="1">
			</stop>
			<stop offset="85.55555555555554%" stop-color="#43438d" stop-opacity="1">
			</stop>
		</linearGradient>
	</defs>
	<defs>
		<linearGradient id="grad1_2" x1="43.8%" y1="100%" x2="100%" y2="0%">
			<stop offset="14.444444444444446%" stop-color="#212227" stop-opacity="1">
			</stop>
			<stop offset="85.55555555555554%" stop-color="#43438d" stop-opacity="1">
			</stop>
		</linearGradient>
	</defs>
	<defs>
		<linearGradient id="grad2_0" x1="0%" y1="100%" x2="56.3%" y2="0%">
			<stop offset="14.444444444444446%" stop-color="#9b53ed" stop-opacity="1">
			</stop>
			<stop offset="85.55555555555554%" stop-color="#9b53ed" stop-opacity="1">
			</stop>
		</linearGradient>
	</defs>
	<defs>
		<linearGradient id="grad2_1" x1="0%" y1="100%" x2="56.3%" y2="0%">
			<stop offset="14.444444444444446%" stop-color="#43438d" stop-opacity="1">
			</stop>
			<stop offset="85.55555555555554%" stop-color="#9b53ed" stop-opacity="1">
			</stop>
		</linearGradient>
	</defs>
	<defs>
		<linearGradient id="grad2_2" x1="0%" y1="100%" x2="56.3%" y2="0%">
			<stop offset="14.444444444444446%" stop-color="#43438d" stop-opacity="1">
			</stop>
			<stop offset="85.55555555555554%" stop-color="#212227" stop-opacity="1">
			</stop>
		</linearGradient>
	</defs>
	<g transform="translate(1920, 1080)">
		<path d="M-918 0C-880.9 -44.7 -843.7 -89.5 -817.8 -129.5C-791.9 -169.6 -777.3 -204.9 -786.5 -255.6C-795.8 -306.2 -828.9 -372.2 -817.9 -416.8C-807 -461.4 -751.8 -484.6 -716 -520.2C-680.1 -555.7 -663.6 -603.6 -623.7 -623.7C-583.7 -643.8 -520.4 -636.1 -483.7 -665.8C-447.1 -695.5 -437.1 -762.7 -402.2 -789.4C-367.4 -816.2 -307.6 -802.6 -257.7 -793.2C-207.9 -783.8 -168 -778.5 -126.7 -800C-85.4 -821.5 -42.7 -869.8 0 -918L0 0Z" fill="#2e3459">
		</path>
		<path d="M-612 0C-587.2 -29.8 -562.5 -59.7 -545.2 -86.4C-527.9 -113 -518.2 -136.6 -524.3 -170.4C-530.5 -204.1 -552.6 -248.1 -545.3 -277.8C-538 -307.6 -501.2 -323.1 -477.3 -346.8C-453.4 -370.5 -442.4 -402.4 -415.8 -415.8C-389.2 -429.2 -346.9 -424.1 -322.5 -443.9C-298.1 -463.7 -291.4 -508.4 -268.2 -526.3C-244.9 -544.1 -205 -535.1 -171.8 -528.8C-138.6 -522.5 -112 -519 -84.5 -533.4C-56.9 -547.7 -28.5 -579.8 0 -612L0 0Z" fill="#684fbf">
		</path>
		<path d="M-306 0C-293.6 -14.9 -281.2 -29.8 -272.6 -43.2C-264 -56.5 -259.1 -68.3 -262.2 -85.2C-265.3 -102.1 -276.3 -124.1 -272.6 -138.9C-269 -153.8 -250.6 -161.5 -238.7 -173.4C-226.7 -185.2 -221.2 -201.2 -207.9 -207.9C-194.6 -214.6 -173.5 -212 -161.2 -221.9C-149 -231.8 -145.7 -254.2 -134.1 -263.1C-122.5 -272.1 -102.5 -267.5 -85.9 -264.4C-69.3 -261.3 -56 -259.5 -42.2 -266.7C-28.5 -273.8 -14.2 -289.9 0 -306L0 0Z" fill="#9b53ed">
		</path>
	</g>
	<g transform="translate(0, 0)">
		<path d="M918 0C928.2 51.7 938.4 103.5 906.7 143.6C875 183.8 801.4 212.3 768.5 249.7C735.5 287 743.2 333.1 738.6 376.4C734 419.6 717.1 459.9 706.3 513.1C695.4 566.3 690.7 632.4 642.1 642.1C593.4 651.7 500.7 605 462.6 636.7C424.5 668.4 440.9 778.7 410.4 805.5C379.9 832.2 302.6 775.6 250.6 771.3C198.6 767.1 171.9 815.2 134.4 848.4C96.8 881.6 48.4 899.8 0 918L0 0Z" fill="#2e3459">
		</path>
		<path d="M612 0C618.8 34.5 625.6 69 604.5 95.7C583.3 122.5 534.3 141.6 512.3 166.5C490.3 191.4 495.5 222.1 492.4 250.9C489.4 279.7 478.1 306.6 470.8 342.1C463.6 377.6 460.5 421.6 428 428C395.6 434.5 333.8 403.3 308.4 424.5C283 445.6 293.9 519.1 273.6 537C253.3 554.8 201.7 517 167.1 514.2C132.4 511.4 114.6 543.5 89.6 565.6C64.6 587.7 32.3 599.9 0 612L0 0Z" fill="#684fbf">
		</path>
		<path d="M306 0C309.4 17.2 312.8 34.5 302.2 47.9C291.7 61.3 267.1 70.8 256.2 83.2C245.2 95.7 247.7 111 246.2 125.5C244.7 139.9 239 153.3 235.4 171C231.8 188.8 230.2 210.8 214 214C197.8 217.2 166.9 201.7 154.2 212.2C141.5 222.8 147 259.6 136.8 268.5C126.6 277.4 100.9 258.5 83.5 257.1C66.2 255.7 57.3 271.7 44.8 282.8C32.3 293.9 16.1 299.9 0 306L0 0Z" fill="#9b53ed">
		</path>
	</g>
</svg>
