<?xml version="1.0" encoding="utf-8"?><!-- Uploaded to: SVG Repo, www.svgrepo.com, Generator: SVG Repo Mixer Tools -->
<svg width="800px" height="800px" viewBox="0 0 24 24" fill="none" xmlns="http://www.w3.org/2000/svg">
<path fill-rule="evenodd" clip-rule="evenodd" d="M18.6284 13.4807C19.4942 12.2024 20 10.6603 20 9C20 4.58172 16.4183 1 12 1C7.58172 1 4 4.58172 4 9C4 10.5545 4.44338 12.0055 5.21057 13.2333L2.05686 18.6957C1.88357 18.9958 1.87805 19.3643 2.04226 19.6695C2.20648 19.9747 2.51701 20.1731 2.86297 20.1939L5.85952 20.3738L7.51356 22.8789C7.70452 23.1681 8.03162 23.3379 8.37805 23.3275C8.72447 23.3171 9.04081 23.1281 9.2141 22.8279L12.0008 18.0013L14.634 22.5622C14.8073 22.8623 15.1236 23.0513 15.47 23.0617C15.8165 23.0721 16.1436 22.9024 16.3345 22.6132L17.9071 20.2314L20.7561 20.0604C21.102 20.0396 21.4126 19.8412 21.5768 19.536C21.741 19.2308 21.7355 18.8623 21.5622 18.5622L18.6284 13.4807ZM12 15C15.3137 15 18 12.3137 18 9C18 5.68629 15.3137 3 12 3C8.68629 3 6 5.68629 6 9C6 12.3137 8.68629 15 12 15ZM13.6355 16.8327L15.557 20.1609L16.5136 18.7122C16.687 18.4495 16.974 18.2838 17.2882 18.2649L19.0211 18.1609L17.2282 15.0554C16.2192 15.9273 14.9901 16.5513 13.6355 16.8327ZM4.59792 18.2944L6.57139 14.8763C7.61642 15.8422 8.91965 16.5328 10.3659 16.833L8.29107 20.4267L7.25305 18.8545C7.07962 18.5919 6.79264 18.4262 6.47845 18.4073L4.59792 18.2944Z" fill="#ffffff"/>
</svg>