<?xml version="1.0" encoding="utf-8"?>

<!DOCTYPE svg PUBLIC "-//W3C//DTD SVG 1.1//EN" "http://www.w3.org/Graphics/SVG/1.1/DTD/svg11.dtd">
<!-- Uploaded to: SVG Repo, www.svgrepo.com, Generator: SVG Repo Mixer Tools -->
<svg height="800px" width="800px" version="1.1" id="_x32_" xmlns="http://www.w3.org/2000/svg" xmlns:xlink="http://www.w3.org/1999/xlink" 
	 viewBox="0 0 512 512"  xml:space="preserve">
<style type="text/css">
	.st0{fill:#000000;}
</style>
<g>
	<path class="st0" d="M512,169.146c-44.289,8.053-72.49,61.657-84.707,72.735c-1.318-0.387-2.676-0.65-4.116-0.65h-22.098v-47.926
		c0-5.99-4.86-10.851-10.851-10.851c-5.991,0-10.851,4.86-10.851,10.851v47.926h-34.559V183.66c0-5.99-4.86-10.851-10.851-10.851
		c-5.991,0-10.851,4.86-10.851,10.851v57.571h-34.569v-67.216c0-5.991-4.86-10.851-10.851-10.851
		c-5.991,0-10.851,4.86-10.851,10.851v67.216h-34.559V183.66c0-5.99-4.86-10.851-10.851-10.851c-5.99,0-10.851,4.86-10.851,10.851
		v57.571h-31.592c-2.185-67.31-18.621-105.109-18.621-105.109C67.385,141.886,0,231.443,0,231.443l18.867,24.556L0,280.555
		c0,0,67.385,89.549,160.372,95.323c0,0,16.436-37.8,18.621-105.109h31.592v57.57c0,5.991,4.86,10.851,10.851,10.851
		c5.991,0,10.851-4.86,10.851-10.851v-57.57h34.559v67.215c0,5.991,4.86,10.851,10.851,10.851c5.99,0,10.851-4.86,10.851-10.851
		v-67.215h34.569v57.57c0,5.991,4.86,10.851,10.851,10.851c5.991,0,10.851-4.86,10.851-10.851v-57.57h34.559v47.924
		c0,5.991,4.86,10.851,10.851,10.851c5.991,0,10.851-4.86,10.851-10.851v-47.924h22.098c1.441,0,2.807-0.273,4.126-0.66
		c12.217,11.096,40.418,64.692,84.697,72.745l-7.488-86.855L512,169.146z M99.665,242.483c-9.325,0-16.88-7.554-16.88-16.879
		c0-9.325,7.554-16.879,16.88-16.879c9.325,0,16.879,7.554,16.879,16.879C116.544,234.929,108.99,242.483,99.665,242.483z"/>
</g>
</svg>